<svg id="Layer_1" data-name="Layer 1" xmlns="http://www.w3.org/2000/svg" xmlns:xlink="http://www.w3.org/1999/xlink" viewBox="0 0 567.13 135.51"><defs><style>.cls-1,.cls-7,.cls-8,.cls-9{fill:none;}.cls-16,.cls-2,.cls-6{fill:#fff;}.cls-16,.cls-2,.cls-7,.cls-8,.cls-9{stroke:#231f20;stroke-miterlimit:10;}.cls-3{clip-path:url(#clip-path);}.cls-4{font-size:15.63px;}.cls-11,.cls-19,.cls-22,.cls-4{font-family:CMMI10, CMMI10;}.cls-5{font-size:10.94px;}.cls-13,.cls-5{font-family:CMMI7, CMMI7;}.cls-8{stroke-dasharray:1.89 1.89;}.cls-9{stroke-dasharray:1.94 1.94;}.cls-10{clip-path:url(#clip-path-3);}.cls-11{font-size:15.97px;}.cls-12,.cls-13{font-size:11.18px;}.cls-12{font-family:CMR7, CMR7;}.cls-14{clip-path:url(#clip-path-5);}.cls-15,.cls-25,.cls-26,.cls-27,.cls-32{fill:#231f20;}.cls-16{stroke-width:0.5px;}.cls-17{clip-path:url(#clip-path-7);}.cls-18,.cls-19{font-size:23.06px;}.cls-18,.cls-23{font-family:CMR10, CMR10;}.cls-20{clip-path:url(#clip-path-9);}.cls-21,.cls-22,.cls-23{font-size:7px;}.cls-21{font-family:MyriadPro-Regular, Myriad Pro;}.cls-24{clip-path:url(#clip-path-11);}.cls-25{font-size:7.14px;}.cls-25,.cls-26,.cls-27{font-family:CMUSerif-Roman, CMU Serif;}.cls-26{font-size:7.73px;}.cls-27,.cls-32{font-size:9px;}.cls-28,.cls-32{font-family:CMUSerif-Italic, CMU Serif;}.cls-28,.cls-29,.cls-32{font-style:italic;}.cls-29{font-family:CMUClassicalSerif-Italic, CMU Classical Serif;}.cls-30{letter-spacing:0.03em;}.cls-31{letter-spacing:-0.03em;}</style><clipPath id="clip-path"><rect class="cls-1" x="97.62" y="23.12" width="17" height="13.51"/></clipPath><clipPath id="clip-path-3"><rect class="cls-1" x="150.26" y="20.75" width="18.25" height="18.25"/></clipPath><clipPath id="clip-path-5"><rect class="cls-1" x="123.85" y="20.15" width="17.81" height="18.25"/></clipPath><clipPath id="clip-path-7"><rect class="cls-1" x="213.48" y="14.72" width="13.5" height="27"/></clipPath><clipPath id="clip-path-9"><rect class="cls-1" x="275.85" y="10.42" width="10.34" height="42.14"/></clipPath><clipPath id="clip-path-11"><rect class="cls-1" x="328.6" y="10.42" width="8.39" height="42.14"/></clipPath></defs><title>direct_prediction</title><rect class="cls-2" x="94.75" y="16.85" width="22.74" height="27.24"/><g class="cls-3"><g class="cls-3"><text class="cls-4" transform="translate(97.46 33.87)">X</text><text class="cls-5" transform="translate(110.41 36.21)">t</text></g></g><rect class="cls-6" x="121.39" y="16.85" width="22.74" height="27.24"/><polyline class="cls-7" points="144.12 43.09 144.12 44.09 143.12 44.09"/><line class="cls-8" x1="141.24" y1="44.09" x2="123.33" y2="44.09"/><polyline class="cls-7" points="122.39 44.09 121.39 44.09 121.39 43.09"/><line class="cls-9" x1="121.39" y1="41.15" x2="121.39" y2="18.82"/><polyline class="cls-7" points="121.39 17.85 121.39 16.85 122.39 16.85"/><line class="cls-8" x1="124.27" y1="16.85" x2="142.18" y2="16.85"/><polyline class="cls-7" points="143.12 16.85 144.12 16.85 144.12 17.85"/><line class="cls-9" x1="144.12" y1="19.79" x2="144.12" y2="42.12"/><rect class="cls-6" x="148.02" y="16.85" width="22.74" height="27.24"/><polyline class="cls-7" points="170.75 43.09 170.75 44.09 169.75 44.09"/><line class="cls-8" x1="167.87" y1="44.09" x2="149.96" y2="44.09"/><polyline class="cls-7" points="149.02 44.09 148.02 44.09 148.02 43.09"/><line class="cls-9" x1="148.02" y1="41.15" x2="148.02" y2="18.82"/><polyline class="cls-7" points="148.02 17.85 148.02 16.85 149.02 16.85"/><line class="cls-8" x1="150.9" y1="16.85" x2="168.81" y2="16.85"/><polyline class="cls-7" points="169.75 16.85 170.75 16.85 170.75 17.85"/><line class="cls-9" x1="170.75" y1="19.79" x2="170.75" y2="42.12"/><g class="cls-10"><g class="cls-10"><text class="cls-11" transform="translate(150.03 34.93)">E</text><text class="cls-12" transform="translate(162.73 28.34)">2</text><text class="cls-13" transform="translate(161.81 38.88)">t</text></g></g><g class="cls-14"><g class="cls-14"><text class="cls-11" transform="translate(123.62 34.33)">E</text><text class="cls-12" transform="translate(136.32 27.73)">1</text><text class="cls-13" transform="translate(135.4 38.27)">t</text></g></g><line class="cls-7" x1="176.93" y1="28.77" x2="194.46" y2="28.77"/><polygon class="cls-15" points="191.65 32.47 193.22 28.77 191.65 25.06 200.43 28.77 191.65 32.47"/><rect class="cls-16" x="206.53" y="13.27" width="27.39" height="32.01"/><g class="cls-17"><g class="cls-17"><text class="cls-18" transform="translate(217.6 30.79)">ˆ</text><text class="cls-19" transform="translate(212.63 36.87)">f</text></g></g><g class="cls-20"><g class="cls-20"><text class="cls-21" transform="translate(273.62 10.82)"></text><text class="cls-21" transform="translate(273.62 23.14)"></text><text class="cls-21" transform="translate(273.62 27.33)"></text><text class="cls-21" transform="translate(273.62 31.53)"></text><text class="cls-21" transform="translate(273.62 35.73)"></text><text class="cls-21" transform="translate(273.62 40.21)"></text><text class="cls-22" transform="translate(278.28 16.42)">.</text><text class="cls-23" transform="translate(280.22 16.42)">9</text><text class="cls-22" transform="translate(278.28 24.82)">.</text><text class="cls-23" transform="translate(280.22 24.82)">7</text><text class="cls-22" transform="translate(278.28 33.21)">.</text><text class="cls-23" transform="translate(280.22 33.21)">8</text><text class="cls-22" transform="translate(278.28 41.61)">.</text><text class="cls-23" transform="translate(280.22 41.61)">1</text><text class="cls-22" transform="translate(278.28 50.01)">.</text><text class="cls-23" transform="translate(280.22 50.01)">2</text><text class="cls-21" transform="translate(283.72 10.82)"></text><text class="cls-21" transform="translate(283.72 23.14)"></text><text class="cls-21" transform="translate(283.72 27.33)"></text><text class="cls-21" transform="translate(283.72 31.53)"></text><text class="cls-21" transform="translate(283.72 35.73)"></text><text class="cls-21" transform="translate(283.72 40.21)"></text></g></g><line class="cls-7" x1="243.27" y1="28.32" x2="260.8" y2="28.32"/><polygon class="cls-15" points="258 32.02 259.57 28.32 258 24.61 266.77 28.32 258 32.02"/><g class="cls-24"><g class="cls-24"><text class="cls-21" transform="translate(326.44 10.82)"></text><text class="cls-21" transform="translate(326.44 23.14)"></text><text class="cls-21" transform="translate(326.44 27.33)"></text><text class="cls-21" transform="translate(326.44 31.53)"></text><text class="cls-21" transform="translate(326.44 35.73)"></text><text class="cls-21" transform="translate(326.44 40.21)"></text><text class="cls-23" transform="translate(331.11 16.42)">1</text><text class="cls-23" transform="translate(331.11 24.82)">1</text><text class="cls-23" transform="translate(331.11 33.21)">1</text><text class="cls-23" transform="translate(331.11 41.61)">0</text><text class="cls-23" transform="translate(331.11 50.01)">0</text><text class="cls-21" transform="translate(334.6 10.82)"></text><text class="cls-21" transform="translate(334.6 23.14)"></text><text class="cls-21" transform="translate(334.6 27.33)"></text><text class="cls-21" transform="translate(334.6 31.53)"></text><text class="cls-21" transform="translate(334.6 35.73)"></text><text class="cls-21" transform="translate(334.6 40.21)"></text></g></g><line class="cls-7" x1="295.65" y1="29.78" x2="313.18" y2="29.78"/><polygon class="cls-15" points="310.37 33.48 311.94 29.78 310.37 26.08 319.15 29.78 310.37 33.48"/><image width="225" height="225" transform="translate(380.19 12.99) scale(0.16)" xlink:href="download.jpg"/><line class="cls-7" x1="349.34" y1="29.78" x2="366.87" y2="29.78"/><polygon class="cls-15" points="364.06 33.48 365.64 29.78 364.06 26.08 372.84 29.78 364.06 33.48"/><ellipse class="cls-2" cx="488.09" cy="23.8" rx="2.3" ry="2.13"/><ellipse class="cls-2" cx="475.66" cy="50.48" rx="2.3" ry="2.13"/><ellipse class="cls-2" cx="455.93" cy="30.33" rx="2.3" ry="2.13"/><text class="cls-25" transform="matrix(1.08, -0.01, 0.01, 1, 472.9, 46.83)">5</text><text class="cls-25" transform="matrix(1.08, -0.01, 0.01, 1, 486.18, 20.13)">4</text><text class="cls-25" transform="matrix(1.08, -0.01, 0.01, 1, 453.98, 27.2)">3</text><line class="cls-7" x1="470.9" y1="45.8" x2="459.91" y2="34.19"/><path class="cls-15" d="M472.56,47.55a12,12,0,0,1-1-3.79l-.91,1.81-1.85.81A12.24,12.24,0,0,1,472.56,47.55Z"/><path class="cls-15" d="M458.25,32.44A12.24,12.24,0,0,0,462,33.61l-1.85.81-.91,1.81A12,12,0,0,0,458.25,32.44Z"/><line class="cls-7" x1="478.64" y1="44.6" x2="485.9" y2="28.73"/><path class="cls-15" d="M477.63,46.79a12.22,12.22,0,0,1,3.15-2.31l-2-.17-1.45-1.42A12.08,12.08,0,0,1,477.63,46.79Z"/><path class="cls-15" d="M486.91,26.54a12.08,12.08,0,0,0,.3,3.9L485.77,29l-2-.17A12.1,12.1,0,0,0,486.91,26.54Z"/><line class="cls-7" x1="461.62" y1="29.73" x2="482.5" y2="25.26"/><path class="cls-15" d="M459.26,30.24A12,12,0,0,1,463,31.38l-1.07-1.71.27-2A12,12,0,0,1,459.26,30.24Z"/><path class="cls-15" d="M484.86,24.76a12,12,0,0,0-2.94,2.57l.27-2-1.07-1.72A12.34,12.34,0,0,0,484.86,24.76Z"/><circle class="cls-2" cx="19.63" cy="10.25" r="2.3"/><circle class="cls-2" cx="60.84" cy="22.09" r="2.3"/><circle class="cls-2" cx="48.18" cy="50.9" r="2.3"/><circle class="cls-2" cx="28.63" cy="28.91" r="2.3"/><circle class="cls-2" cx="2.8" cy="31.79" r="2.3"/><text class="cls-26" transform="translate(1.13 28.26)">1</text><text class="cls-26" transform="translate(17.79 6.51)">2</text><text class="cls-26" transform="translate(45.46 46.93)">5</text><text class="cls-26" transform="translate(58.96 18.09)">4</text><text class="cls-26" transform="translate(26.71 25.51)">3</text><line class="cls-7" x1="15.87" y1="13.76" x2="5.49" y2="27.56"/><path class="cls-15" d="M17.32,11.83a12,12,0,0,1-3.57,1.59l1.93.6,1.11,1.69A11.81,11.81,0,0,1,17.32,11.83Z"/><path class="cls-15" d="M4,29.49a12.09,12.09,0,0,0,.54-3.88l1.1,1.7,1.94.59A11.9,11.9,0,0,0,4,29.49Z"/><line class="cls-7" x1="23" y1="29.77" x2="8.3" y2="31.51"/><path class="cls-15" d="M25.39,29.49A12.28,12.28,0,0,1,21.78,28l.9,1.81-.46,2A12.18,12.18,0,0,1,25.39,29.49Z"/><path class="cls-15" d="M5.91,31.79A12.18,12.18,0,0,0,9.08,29.5l-.46,2,.9,1.81A12.28,12.28,0,0,0,5.91,31.79Z"/><line class="cls-7" x1="25.28" y1="24.39" x2="21.35" y2="15.33"/><path class="cls-15" d="M26.25,26.61a12,12,0,0,1,.38-3.9L25.16,24.1l-2,.13A12,12,0,0,1,26.25,26.61Z"/><path class="cls-15" d="M20.38,13.11a12,12,0,0,0,3.11,2.38l-2,.13L20,17A12,12,0,0,0,20.38,13.11Z"/><line class="cls-7" x1="43.53" y1="45.88" x2="32.5" y2="33.05"/><path class="cls-15" d="M45.11,47.71a12.13,12.13,0,0,1-.79-3.84l-1,1.76-1.89.72A12.19,12.19,0,0,1,45.11,47.71Z"/><path class="cls-15" d="M30.93,31.22a12.33,12.33,0,0,0,3.67,1.35l-1.89.72-1,1.76A12.29,12.29,0,0,0,30.93,31.22Z"/><line class="cls-7" x1="25.28" y1="24.39" x2="21.35" y2="15.33"/><path class="cls-15" d="M26.25,26.61a12,12,0,0,1,.38-3.9L25.16,24.1l-2,.13A12,12,0,0,1,26.25,26.61Z"/><path class="cls-15" d="M20.38,13.11a12,12,0,0,0,3.11,2.38l-2,.13L20,17A12,12,0,0,0,20.38,13.11Z"/><line class="cls-7" x1="51.14" y1="44.71" x2="58.68" y2="27.26"/><path class="cls-15" d="M50.19,46.93a11.81,11.81,0,0,1,3.1-2.39l-2-.12L49.79,43A12,12,0,0,1,50.19,46.93Z"/><path class="cls-15" d="M59.63,25a12,12,0,0,0,.4,3.9l-1.48-1.39-2-.12A11.81,11.81,0,0,0,59.63,25Z"/><line class="cls-7" x1="34.31" y1="28.31" x2="55.25" y2="23.63"/><path class="cls-15" d="M32,28.84A11.81,11.81,0,0,1,35.71,30l-1.09-1.71.26-2A12.19,12.19,0,0,1,32,28.84Z"/><path class="cls-15" d="M57.61,23.1a12,12,0,0,0-2.92,2.6l.25-2L53.85,22A12.13,12.13,0,0,0,57.61,23.1Z"/><line class="cls-7" x1="65.07" y1="30.29" x2="82.6" y2="30.29"/><polygon class="cls-15" points="79.79 34 81.36 30.29 79.79 26.59 88.57 30.29 79.79 34"/><line class="cls-7" x1="424.54" y1="34.19" x2="442.07" y2="34.19"/><polygon class="cls-15" points="439.27 37.89 440.84 34.19 439.27 30.48 448.04 34.19 439.27 37.89"/><text class="cls-27" transform="translate(9.24 66.89)">Initial graph<tspan x="0" y="10.8">at time </tspan><tspan class="cls-28" x="31.46" y="10.8">t</tspan><tspan x="34.45" y="10.8">.</tspan></text><text></text><text></text><text class="cls-27" transform="translate(93.16 67.22)">Matrix of data <tspan x="0" y="10.8">attributes </tspan><tspan class="cls-29" x="41.52" y="10.8">X</tspan><tspan class="cls-29" x="48.2" y="12.8">t</tspan><tspan x="51.19" y="10.8">, </tspan><tspan class="cls-30" x="56.68" y="10.8">p</tspan><tspan x="61.93" y="10.8">ossibly </tspan><tspan x="0" y="21.6">concatenated with </tspan><tspan x="0" y="32.4">infomation a</tspan><tspan class="cls-30" x="49.71" y="32.4">b</tspan><tspan x="54.95" y="32.4">out </tspan><tspan x="0" y="43.2">graph</tspan></text><text class="cls-27" transform="translate(200.43 67.22)">Statistical m<tspan class="cls-30" x="49.99" y="0">o</tspan><tspan x="54.74" y="0">del</tspan><tspan x="0" y="10.8">outputs probabili</tspan><tspan class="cls-31" x="68" y="10.8">t</tspan><tspan x="71.24" y="10.8">y of </tspan><tspan x="0" y="21.6">mat</tspan><tspan class="cls-31" x="15.49" y="21.6">c</tspan><tspan x="19.23" y="21.6">hing for ea</tspan><tspan class="cls-31" x="61.47" y="21.6">c</tspan><tspan x="65.21" y="21.6">h </tspan><tspan x="0" y="32.4">n</tspan><tspan class="cls-30" x="5" y="32.4">o</tspan><tspan x="9.75" y="32.4">de</tspan></text><text class="cls-27" transform="translate(303.6 67.22)">Probabilities<tspan x="0" y="10.8">are thresholded.</tspan><tspan x="0" y="21.6">N</tspan><tspan class="cls-30" x="6.75" y="21.6">o</tspan><tspan x="11.5" y="21.6">des with 1 </tspan><tspan x="0" y="32.4">are selected to</tspan><tspan class="cls-30" x="0" y="43.2">b</tspan><tspan x="5.25" y="43.2">e cleared.</tspan></text><text></text><text class="cls-27" transform="translate(373.93 67.22)">I<tspan class="cls-31" x="3.25" y="0">n</tspan><tspan x="7.99" y="0">teger programming </tspan><tspan x="0" y="10.8">sol</tspan><tspan class="cls-31" x="10.54" y="10.8">v</tspan><tspan x="15.03" y="10.8">er finds a </tspan><tspan x="0" y="21.6">maximal mat</tspan><tspan class="cls-31" x="52.21" y="21.6">c</tspan><tspan x="55.95" y="21.6">hing </tspan><tspan x="0" y="32.4">among selected n</tspan><tspan class="cls-30" x="67.49" y="32.4">o</tspan><tspan x="72.24" y="32.4">des</tspan></text><text class="cls-27" transform="translate(475.66 67.22)">N<tspan class="cls-30" x="6.75" y="0">o</tspan><tspan x="11.5" y="0">des are cleared </tspan><tspan x="0" y="10.8">according to solution.</tspan><tspan x="0" y="21.6">M</tspan><tspan class="cls-30" x="8.24" y="21.6">o</tspan><tspan x="13" y="21.6">del is all</tspan><tspan class="cls-31" x="46" y="21.6">ow</tspan><tspan x="56.49" y="21.6">ed to </tspan><tspan x="0" y="32.4">e</tspan><tspan class="cls-31" x="4" y="32.4">v</tspan><tspan x="8.49" y="32.4">ol</tspan><tspan class="cls-31" x="15.48" y="32.4">v</tspan><tspan x="19.97" y="32.4">e to next </tspan><tspan class="cls-30" x="58.18" y="32.4">p</tspan><tspan x="63.42" y="32.4">eri</tspan><tspan class="cls-30" x="73.43" y="32.4">o</tspan><tspan x="78.18" y="32.4">d,</tspan><tspan x="0" y="43.2">and the next iteration </tspan><tspan x="0" y="54">starts.</tspan></text><line class="cls-7" x1="495.97" y1="35.1" x2="513.5" y2="35.1"/><polygon class="cls-15" points="510.69 38.8 512.26 35.1 510.69 31.39 519.47 35.1 510.69 38.8"/><text class="cls-32" transform="translate(422.24 27.21)">{1,2}</text><ellipse class="cls-2" cx="561.28" cy="26.44" rx="2.3" ry="2.13"/><ellipse class="cls-2" cx="548.85" cy="53.12" rx="2.3" ry="2.13"/><ellipse class="cls-2" cx="529.12" cy="32.97" rx="2.3" ry="2.13"/><text class="cls-25" transform="matrix(1.08, -0.01, 0.01, 1, 546.1, 49.47)">5</text><text class="cls-25" transform="matrix(1.08, -0.01, 0.01, 1, 559.37, 22.77)">4</text><text class="cls-25" transform="matrix(1.08, -0.01, 0.01, 1, 527.18, 29.84)">3</text><line class="cls-7" x1="544.1" y1="48.44" x2="533.11" y2="36.83"/><path class="cls-15" d="M545.76,50.19a11.71,11.71,0,0,1-1-3.79l-.91,1.81L542,49A12.21,12.21,0,0,1,545.76,50.19Z"/><path class="cls-15" d="M531.45,35.08a11.89,11.89,0,0,0,3.73,1.17l-1.86.81-.9,1.81A12.24,12.24,0,0,0,531.45,35.08Z"/><line class="cls-7" x1="551.83" y1="47.24" x2="559.1" y2="31.37"/><path class="cls-15" d="M550.83,49.43A12.11,12.11,0,0,1,554,47.12L552,47l-1.44-1.42A12.08,12.08,0,0,1,550.83,49.43Z"/><path class="cls-15" d="M560.1,29.18a12.08,12.08,0,0,0,.31,3.9L559,31.66l-2-.17A11.89,11.89,0,0,0,560.1,29.18Z"/><line class="cls-7" x1="534.66" y1="32.08" x2="555.54" y2="27.61"/><path class="cls-15" d="M532.3,32.58A12.34,12.34,0,0,1,536,33.73L535,32l.27-2A11.75,11.75,0,0,1,532.3,32.58Z"/><path class="cls-15" d="M557.9,27.1A12,12,0,0,0,555,29.68l.27-2L554.16,26A12,12,0,0,0,557.9,27.1Z"/><text class="cls-25" transform="matrix(1.08, -0.01, 0.01, 1, 538.6, 8.09)">6</text><ellipse class="cls-2" cx="542.79" cy="11.91" rx="2.3" ry="2.13"/><line class="cls-7" x1="532.66" y1="27.77" x2="539.25" y2="16.72"/><path class="cls-15" d="M531.43,29.84a12,12,0,0,1,3.38-2l-2-.38-1.28-1.57A12.27,12.27,0,0,1,531.43,29.84Z"/><path class="cls-15" d="M540.49,14.65a12.27,12.27,0,0,0-.12,3.91L539.09,17l-2-.38A12,12,0,0,0,540.49,14.65Z"/><line class="cls-7" x1="555.66" y1="22.38" x2="546.97" y2="16.06"/><path class="cls-15" d="M557.61,23.8A12.14,12.14,0,0,1,556,20.25l-.57,1.94-1.67,1.14A12,12,0,0,1,557.61,23.8Z"/><path class="cls-15" d="M545,14.65a12.36,12.36,0,0,0,3.88.47l-1.67,1.13-.56,1.94A12,12,0,0,0,545,14.65Z"/><text class="cls-32" transform="translate(502.03 28.67)">t+1</text></svg>